<svg width="67" height="11" viewBox="0 0 67 11" fill="none" xmlns="http://www.w3.org/2000/svg">
<path d="M0.24 9C0.24 8.256 0.24 7.516 0.24 6.78C0.24 6.044 0.24 5.308 0.24 4.572C0.24 3.828 0.24 3.088 0.24 2.352C0.24 1.952 0.24 1.56 0.24 1.176C0.24 0.784 0.24 0.391999 0.24 -7.15256e-07H4.392C4.392 0.247999 4.392 0.539999 4.392 0.875999C4.392 1.204 4.392 1.548 4.392 1.908C4.392 2.268 4.392 2.616 4.392 2.952C4.392 3.4 4.392 3.784 4.392 4.104C4.392 4.424 4.392 4.604 4.392 4.644C4.392 4.684 4.392 4.776 4.392 4.92C4.392 5.056 4.392 5.224 4.392 5.424C4.392 5.688 4.392 5.984 4.392 6.312C4.392 6.64 4.392 6.976 4.392 7.32C4.392 7.656 4.392 7.972 4.392 8.268C4.392 8.564 4.392 8.808 4.392 9H0.24ZM5.664 9C5.664 8.688 5.664 8.376 5.664 8.064C5.664 7.752 5.664 7.444 5.664 7.14C5.664 6.828 5.664 6.516 5.664 6.204C5.664 5.892 5.664 5.58 5.664 5.268C5.664 5.036 5.604 4.868 5.484 4.764C5.372 4.66 5.236 4.604 5.076 4.596C4.916 4.58 4.768 4.592 4.632 4.632C4.504 4.672 4.424 4.716 4.392 4.764L5.352 1.68C5.64 1.552 5.948 1.456 6.276 1.392C6.604 1.328 6.928 1.296 7.248 1.296C7.696 1.296 8.112 1.368 8.496 1.512C8.888 1.656 9.204 1.884 9.444 2.196C9.692 2.508 9.816 2.924 9.816 3.444C9.816 4.06 9.816 4.68 9.816 5.304C9.816 5.92 9.816 6.536 9.816 7.152C9.816 7.768 9.816 8.384 9.816 9H5.664ZM13.1334 10.44C13.2774 10.28 13.4174 10.12 13.5534 9.96C13.6894 9.8 13.8254 9.64 13.9614 9.48C14.1054 9.32 14.2454 9.16 14.3814 9H12.1374C11.8734 8.168 11.6094 7.34 11.3454 6.516C11.0814 5.692 10.8174 4.868 10.5534 4.044C10.2894 3.212 10.0254 2.384 9.76144 1.56H14.1654C14.3094 2.416 14.4494 3.272 14.5854 4.128C14.7294 4.984 14.8734 5.84 15.0174 6.696C15.0174 6.696 15.0174 6.708 15.0174 6.732C15.0254 6.756 15.0294 6.768 15.0294 6.768C15.0294 6.768 15.0294 6.764 15.0294 6.756C15.0374 6.74 15.0414 6.728 15.0414 6.72C15.0414 6.712 15.0414 6.708 15.0414 6.708C15.1454 6.132 15.2454 5.56 15.3414 4.992C15.4374 4.416 15.5334 3.844 15.6294 3.276C15.7334 2.7 15.8334 2.128 15.9294 1.56H20.1054C19.7854 2.552 19.4614 3.54 19.1334 4.524C18.8134 5.508 18.4934 6.492 18.1734 7.476C17.8534 8.46 17.5294 9.448 17.2014 10.44H13.1334ZM26.628 9C26.628 8.568 26.628 8.14 26.628 7.716C26.628 7.284 26.628 6.856 26.628 6.432C26.628 6 26.628 5.572 26.628 5.148C26.628 4.996 26.588 4.864 26.508 4.752C26.428 4.64 26.32 4.548 26.184 4.476C26.048 4.404 25.896 4.352 25.728 4.32C25.56 4.28 25.384 4.26 25.2 4.26C24.736 4.26 24.388 4.352 24.156 4.536C23.932 4.72 23.82 4.924 23.82 5.148C23.82 5.316 23.868 5.468 23.964 5.604C24.068 5.74 24.22 5.852 24.42 5.94C24.628 6.02 24.888 6.06 25.2 6.06C25.536 6.06 25.836 6 26.1 5.88C26.364 5.76 26.536 5.564 26.616 5.292L25.656 9C25.4 9.064 25.156 9.108 24.924 9.132C24.692 9.164 24.424 9.18 24.12 9.18C23.504 9.18 22.924 9.096 22.38 8.928C21.836 8.752 21.356 8.496 20.94 8.16C20.532 7.824 20.208 7.416 19.968 6.936C19.736 6.456 19.62 5.908 19.62 5.292C19.62 4.764 19.704 4.292 19.872 3.876C20.04 3.452 20.268 3.084 20.556 2.772C20.852 2.46 21.192 2.2 21.576 1.992C21.96 1.784 22.368 1.632 22.8 1.536C23.24 1.432 23.684 1.38 24.132 1.38C24.316 1.38 24.504 1.388 24.696 1.404C24.888 1.42 25.076 1.444 25.26 1.476C25.444 1.508 25.616 1.552 25.776 1.608C25.944 1.664 26.096 1.732 26.232 1.812C26.376 1.892 26.5 1.984 26.604 2.088C26.612 2.096 26.616 2.1 26.616 2.1C26.624 2.092 26.628 2.084 26.628 2.076C26.628 1.756 26.628 1.412 26.628 1.044C26.628 0.668 26.628 0.319999 26.628 -7.15256e-07H30.78C30.78 0.767999 30.78 1.54 30.78 2.316C30.78 3.084 30.78 3.852 30.78 4.62C30.78 5.348 30.78 6.076 30.78 6.804C30.78 7.532 30.78 8.264 30.78 9H26.628ZM35.4115 1.56C35.4115 2.04 35.4115 2.524 35.4115 3.012C35.4115 3.492 35.4115 3.976 35.4115 4.464C35.4115 4.944 35.4115 5.428 35.4115 5.916C35.4115 6.428 35.4115 6.94 35.4115 7.452C35.4115 7.964 35.4115 8.48 35.4115 9H31.2595C31.2595 8.208 31.2595 7.416 31.2595 6.624C31.2595 5.832 31.2595 5.04 31.2595 4.248C31.2595 3.8 31.2595 3.352 31.2595 2.904C31.2595 2.456 31.2595 2.008 31.2595 1.56H35.4115ZM35.3995 6.144L36.0475 2.916C36.1195 2.572 36.2595 2.288 36.4675 2.064C36.6835 1.832 36.9355 1.656 37.2235 1.536C37.5115 1.416 37.8075 1.344 38.1115 1.32C38.4155 1.288 38.6955 1.3 38.9515 1.356C39.2075 1.404 39.4115 1.488 39.5635 1.608L38.6515 6.072C38.4195 5.88 38.1355 5.748 37.7995 5.676C37.4715 5.604 37.1395 5.58 36.8035 5.604C36.4675 5.62 36.1715 5.676 35.9155 5.772C35.6595 5.868 35.4875 5.992 35.3995 6.144ZM39.8749 1.992C40.4589 1.728 41.0909 1.532 41.7709 1.404C42.4589 1.268 43.1469 1.2 43.8349 1.2C44.5069 1.2 45.1549 1.264 45.7789 1.392C46.4029 1.52 46.9589 1.716 47.4469 1.98C47.9429 2.244 48.3349 2.572 48.6229 2.964C48.9109 3.356 49.0549 3.816 49.0549 4.344C49.0549 5.12 49.0549 5.896 49.0549 6.672C49.0549 7.448 49.0549 8.224 49.0549 9C48.7749 9 48.4949 9 48.2149 9C47.9349 9 47.6549 9 47.3749 9C47.0949 9 46.8149 9 46.5349 9C46.2549 9 45.9749 9 45.6949 9C45.4149 9 45.1349 9 44.8549 9C44.8549 8.576 44.8549 8.156 44.8549 7.74C44.8549 7.316 44.8549 6.896 44.8549 6.48C44.8549 6.336 44.8069 6.22 44.7109 6.132C44.6149 6.044 44.4989 5.984 44.3629 5.952C44.2269 5.912 44.0909 5.892 43.9549 5.892C43.6509 5.892 43.4189 5.952 43.2589 6.072C43.1069 6.192 43.0309 6.328 43.0309 6.48C43.0309 6.632 43.1109 6.772 43.2709 6.9C43.4309 7.02 43.6589 7.08 43.9549 7.08C44.0989 7.08 44.2629 7.052 44.4469 6.996C44.6309 6.94 44.7709 6.796 44.8669 6.564C44.6989 6.956 44.5269 7.348 44.3509 7.74C44.1829 8.132 44.0149 8.524 43.8469 8.916C43.5589 9.06 43.2549 9.16 42.9349 9.216C42.6229 9.28 42.3109 9.312 41.9989 9.312C41.6229 9.312 41.2589 9.26 40.9069 9.156C40.5629 9.06 40.2509 8.916 39.9709 8.724C39.6989 8.532 39.4829 8.292 39.3229 8.004C39.1629 7.716 39.0829 7.38 39.0829 6.996C39.0829 6.764 39.1229 6.536 39.2029 6.312C39.2829 6.088 39.4029 5.876 39.5629 5.676C39.7229 5.476 39.9229 5.3 40.1629 5.148C40.4109 4.996 40.7029 4.88 41.0389 4.8C41.3749 4.712 41.7589 4.668 42.1909 4.668C42.4709 4.668 42.7429 4.692 43.0069 4.74C43.2709 4.78 43.5189 4.844 43.7509 4.932C43.9909 5.02 44.2029 5.128 44.3869 5.256C44.5789 5.384 44.7349 5.528 44.8549 5.688C44.8549 5.672 44.8549 5.66 44.8549 5.652C44.8549 5.636 44.8549 5.624 44.8549 5.616C44.8549 5.6 44.8549 5.588 44.8549 5.58C44.8549 5.332 44.7909 5.12 44.6629 4.944C44.5429 4.76 44.3749 4.612 44.1589 4.5C43.9509 4.38 43.7069 4.292 43.4269 4.236C43.1549 4.18 42.8669 4.152 42.5629 4.152C42.0909 4.152 41.6149 4.212 41.1349 4.332C40.6549 4.452 40.2349 4.628 39.8749 4.86V1.992ZM54.9413 9C54.9413 8.376 54.9413 7.744 54.9413 7.104C54.9413 6.464 54.9413 5.832 54.9413 5.208C54.9413 4.976 54.8813 4.812 54.7613 4.716C54.6493 4.62 54.5133 4.568 54.3533 4.56C54.1933 4.552 54.0453 4.572 53.9093 4.62C53.7813 4.668 53.7013 4.716 53.6693 4.764L54.6293 1.68C54.9173 1.552 55.2253 1.456 55.5533 1.392C55.8813 1.328 56.2053 1.296 56.5253 1.296C56.9733 1.296 57.3893 1.368 57.7733 1.512C58.1653 1.656 58.4813 1.884 58.7213 2.196C58.9693 2.508 59.0933 2.924 59.0933 3.444V9H54.9413ZM49.5173 9C49.5173 8.488 49.5173 7.976 49.5173 7.464C49.5173 6.944 49.5173 6.428 49.5173 5.916C49.5173 5.396 49.5173 4.88 49.5173 4.368C49.5173 3.896 49.5173 3.428 49.5173 2.964C49.5173 2.492 49.5173 2.024 49.5173 1.56C49.9813 1.56 50.4413 1.56 50.8973 1.56C51.3613 1.56 51.8253 1.56 52.2893 1.56C52.7533 1.56 53.2133 1.56 53.6693 1.56C53.6693 1.848 53.6693 2.124 53.6693 2.388C53.6693 2.644 53.6693 2.904 53.6693 3.168C53.6693 3.424 53.6693 3.684 53.6693 3.948C53.6693 4.204 53.6693 4.476 53.6693 4.764C53.6693 4.868 53.6693 4.972 53.6693 5.076C53.6693 5.172 53.6693 5.276 53.6693 5.388C53.6693 5.98 53.6693 6.588 53.6693 7.212C53.6693 7.836 53.6693 8.432 53.6693 9H49.5173ZM63.7003 4.824C63.7963 4.456 63.8883 4.092 63.9763 3.732C64.0723 3.372 64.1643 3.012 64.2523 2.652C64.3483 2.284 64.4403 1.92 64.5283 1.56H66.8683V4.824H63.7003ZM59.5843 5.868C59.5843 5.18 59.5843 4.456 59.5843 3.696C59.5843 2.936 59.5843 2.216 59.5843 1.536L63.6883 0.551999C63.6883 0.944 63.6883 1.344 63.6883 1.752C63.6883 2.16 63.6883 2.568 63.6883 2.976C63.6883 3.272 63.6883 3.568 63.6883 3.864C63.6883 4.16 63.6883 4.452 63.6883 4.74C63.6883 4.748 63.6883 4.752 63.6883 4.752C63.6883 4.752 63.6883 4.756 63.6883 4.764C63.6883 4.916 63.7203 5.048 63.7843 5.16C63.8563 5.272 63.9523 5.368 64.0723 5.448C64.2003 5.52 64.3483 5.576 64.5163 5.616C64.6843 5.656 64.8723 5.676 65.0803 5.676C65.3123 5.676 65.5483 5.64 65.7883 5.568C66.0283 5.496 66.2443 5.396 66.4363 5.268C66.6363 5.14 66.7803 4.992 66.8683 4.824V8.472C66.5243 8.744 66.0803 8.944 65.5363 9.072C64.9923 9.208 64.4483 9.276 63.9043 9.276C63.0803 9.276 62.3403 9.144 61.6843 8.88C61.0363 8.608 60.5243 8.22 60.1483 7.716C59.7723 7.204 59.5843 6.588 59.5843 5.868Z" fill="url(#paint0_linear_1_3)"/>
<defs>
<linearGradient id="paint0_linear_1_3" x1="0" y1="4" x2="68" y2="4" gradientUnits="userSpaceOnUse">
<stop stop-color="#FDBA74"/>
<stop offset="0.5" stop-color="#FDBA74"/>
<stop offset="0.5" stop-color="#242424"/>
<stop offset="1" stop-color="#242424"/>
</linearGradient>
</defs>
</svg>
